<svg width="16" height="16" viewBox="0 0 16 16" fill="none" xmlns="http://www.w3.org/2000/svg">
<g clip-path="url(#clip0_3554_26350)">
<path d="M16 8C16 12.4184 12.4184 16 8 16C3.5816 16 0 12.4184 0 8C0 3.5816 3.5816 0 8 0C12.4184 0 16 3.5816 16 8Z" fill="white"/>
<path d="M4.62001 5.2592L5.18161 5.7036L4.23841 7.642L5.70201 6.1152L6.07121 5.7296L8.01561 3.7016L9.95561 5.7264L10.7288 6.5324L11.6512 7.4948L11.242 6.1568L11.766 5.7728L14.7208 7.808C14.838 7.8888 14.9988 7.8004 14.992 7.658C14.8136 3.9508 11.7516 1 8.00001 1C4.24841 1 1.19881 3.94 1.01001 7.638C1.00241 7.784 1.17081 7.8716 1.28721 7.7832L4.62001 5.2592Z" fill="#39CDFF"/>
<path d="M8.00027 9.08594C5.46907 9.08594 3.24787 9.49194 1.64587 9.90354C1.45147 9.95354 1.33907 10.1603 1.40627 10.3495C2.37187 13.0595 4.95867 14.9999 8.00027 14.9999C11.0419 14.9999 13.6287 13.0595 14.5943 10.3495C14.6619 10.1603 14.5491 9.95394 14.3547 9.90394C12.7527 9.49234 10.5315 9.08634 7.99987 9.08634" fill="#070F1E"/>
</g>
<defs>
<clipPath id="clip0_3554_26350">
<rect width="16" height="16" fill="white"/>
</clipPath>
</defs>
</svg>
